<?xml version="1.0" standalone="no"?>
<!DOCTYPE svg PUBLIC "-//W3C//DTD SVG 20010904//EN"
 "http://www.w3.org/TR/2001/REC-SVG-20010904/DTD/svg10.dtd">
<svg version="1.0" xmlns="http://www.w3.org/2000/svg"
 width="1920.000000pt" height="1080.000000pt" viewBox="0 0 1920.000000 1080.000000"
 preserveAspectRatio="xMidYMid meet">

<g transform="translate(0.000000,1080.000000) scale(0.100000,-0.100000)"
fill="#000000" stroke="none">
<path d="M1238 7358 c-23 -20 -48 -57 -48 -72 0 -3 12 6 26 19 15 14 44 27 67
30 23 3 832 5 1797 3 l1755 -3 65 -31 c40 -19 87 -54 124 -90 34 -35 53 -49
46 -34 -23 43 -129 138 -188 167 l-57 28 -1780 3 -1780 2 -27 -22z"/>
<path d="M5050 7372 c0 -32 16 -32 1635 -32 1036 0 1626 -4 1655 -10 54 -12
134 -45 175 -72 27 -17 26 -16 -5 12 -41 36 -124 78 -195 96 -41 11 -348 14
-1657 14 -885 0 -1608 -4 -1608 -8z"/>
<path d="M10905 7375 c-5 -2 -33 -10 -62 -19 -56 -17 -164 -78 -185 -104 -9
-11 -3 -9 17 5 39 27 119 60 175 73 29 6 619 10 1656 10 1618 0 1634 0 1634
32 0 7 -3212 11 -3235 3z"/>
<path d="M14328 7356 c-89 -36 -186 -124 -231 -207 l-18 -34 28 35 c39 50 102
108 144 135 90 58 -16 55 1903 55 1510 0 1765 -2 1789 -14 38 -20 34 -2 -6 28
l-34 26 -1759 0 -1759 0 -57 -24z"/>
<path d="M1081 7231 c-1 -64 30 -139 121 -294 56 -96 106 -157 127 -157 6 0 8
-6 5 -13 -5 -14 26 -47 48 -51 7 -1 18 -5 25 -9 7 -4 15 3 22 20 10 26 11 26
6 3 -6 -34 10 -61 20 -31 8 25 18 27 35 6 18 -22 33 -18 27 6 l-6 21 19 -20
c19 -20 110 -158 110 -167 0 -19 107 -180 144 -215 24 -24 44 -48 43 -54 -1
-6 27 -26 62 -44 49 -24 67 -29 73 -20 5 9 8 7 9 -7 l0 -20 9 20 c7 17 9 17 9
3 1 -10 4 -17 9 -17 4 1 9 1 12 0 3 -1 21 -4 40 -6 l35 -3 -24 19 c-13 10 -19
19 -14 19 21 0 65 -63 152 -215 51 -88 104 -172 119 -187 15 -15 54 -41 87
-57 33 -16 52 -30 43 -30 -10 -1 -32 8 -50 19 -45 27 -56 25 -28 -5 13 -14 28
-25 34 -25 6 0 24 -7 40 -15 15 -8 32 -12 37 -9 5 3 9 0 9 -5 0 -6 8 -11 18
-11 9 0 37 -7 62 -15 37 -13 528 -155 595 -172 11 -3 81 -23 155 -45 74 -22
189 -56 255 -75 66 -19 140 -40 165 -48 25 -7 83 -24 130 -38 47 -13 141 -41
210 -62 155 -46 339 -101 405 -120 28 -8 104 -31 170 -51 66 -20 134 -40 150
-44 17 -5 68 -20 115 -34 47 -13 130 -38 185 -54 260 -76 321 -96 335 -107 8
-7 20 -10 27 -8 7 3 35 -42 68 -110 45 -91 70 -128 125 -185 39 -40 74 -72 80
-72 5 0 10 -6 10 -12 0 -14 146 -100 190 -113 14 -4 30 -11 35 -15 6 -4 37
-15 70 -25 33 -10 80 -29 105 -41 37 -19 41 -24 21 -24 -13 0 -21 -3 -17 -7
12 -12 86 -32 86 -23 0 4 -10 10 -22 13 -12 4 -20 9 -16 12 8 9 78 -27 72 -37
-3 -4 -1 -8 5 -8 5 0 18 -3 28 -6 15 -5 15 -4 3 5 -21 15 -6 13 92 -13 53 -14
84 -26 78 -32 -5 -5 10 -9 41 -9 27 0 49 -2 49 -6 0 -3 15 -9 33 -12 17 -4 97
-24 176 -46 80 -21 151 -36 159 -34 8 3 18 0 23 -8 5 -9 25 -14 53 -14 24 0
39 -3 33 -7 -6 -4 17 -10 51 -14 34 -3 65 -11 68 -15 3 -5 19 -9 35 -9 17 0
28 -4 25 -8 -3 -5 17 -8 45 -8 31 1 53 -4 58 -12 4 -8 14 -12 22 -11 8 1 21
-1 29 -4 28 -11 135 -39 165 -42 17 -2 46 -8 65 -14 19 -6 73 -20 120 -32 47
-11 114 -29 150 -40 36 -10 108 -30 160 -44 52 -14 109 -29 125 -34 17 -5 73
-21 125 -36 182 -52 295 -88 307 -97 7 -5 14 -5 18 2 3 5 15 10 26 10 16 0 19
5 14 20 -11 34 25 24 36 -10 13 -35 29 -39 30 -7 0 12 3 16 6 10 6 -16 39 -17
48 -3 4 6 10 8 15 5 9 -5 57 20 70 36 3 3 18 10 34 16 17 5 32 15 34 22 3 10
0 10 -16 2 -46 -24 -41 -9 7 24 56 39 77 46 41 15 -13 -11 -19 -20 -13 -20 14
0 44 35 36 43 -3 4 7 19 23 33 16 14 68 64 116 111 55 54 91 82 99 77 8 -5 10
-3 4 5 -4 7 1 20 14 32 25 24 32 24 24 1 -7 -18 -5 -17 17 12 10 13 10 17 3
12 -7 -4 -13 -3 -13 2 0 11 69 66 87 68 8 2 18 6 21 10 4 4 -2 4 -13 0 -22 -8
58 79 87 95 14 8 16 6 11 -8 -4 -14 -3 -15 6 -7 7 6 14 18 15 25 6 29 18 48
34 54 14 5 15 4 5 -6 -20 -20 -15 -34 5 -16 10 10 24 17 31 17 7 0 20 8 29 17
16 16 17 15 23 -13 4 -16 7 -21 8 -11 1 15 5 16 21 7 22 -12 27 -1 8 19 -7 8
-1 6 15 -4 15 -9 28 -21 28 -26 1 -5 2 -15 3 -21 0 -7 10 -13 20 -13 11 0 21
-6 24 -14 3 -10 0 -12 -12 -8 -10 4 -15 3 -11 -4 4 -5 14 -7 24 -4 19 6 173
-142 177 -171 1 -8 6 -19 10 -22 4 -4 4 2 0 12 -6 17 -4 17 11 5 57 -43 111
-106 71 -83 -7 4 -2 -5 11 -19 14 -15 27 -27 29 -27 3 0 -3 9 -13 20 -33 37 0
20 39 -19 27 -28 34 -40 24 -45 -7 -3 -4 -4 7 -3 11 1 20 -4 20 -13 1 -8 6
-14 13 -13 14 3 115 -88 107 -96 -4 -3 -9 -1 -13 4 -11 16 -52 49 -52 42 0
-13 56 -57 67 -53 7 3 38 -8 70 -24 32 -17 65 -30 73 -30 8 0 22 -5 30 -11 32
-21 -63 4 -107 29 -25 14 -44 20 -42 13 3 -7 18 -20 34 -29 17 -9 32 -19 35
-22 8 -8 105 -50 115 -50 3 0 5 11 5 24 0 14 4 27 9 30 5 4 7 -11 4 -34 -7
-49 2 -51 21 -5 12 27 21 35 40 35 15 0 26 -5 26 -11 0 -7 -10 -9 -25 -7 -18
4 -25 1 -25 -10 0 -10 8 -13 30 -10 19 3 31 0 34 -9 4 -10 10 -11 23 -3 28 15
153 54 338 104 94 25 184 50 200 55 17 5 82 23 145 40 63 17 158 42 210 57 99
27 161 42 196 48 11 1 26 6 32 9 5 4 36 11 69 16 102 17 147 29 151 40 5 14
32 14 32 0 0 -6 8 -2 18 9 9 11 35 23 57 26 28 4 34 3 20 -4 -19 -8 -19 -9 2
-9 12 -1 25 4 28 9 3 6 17 10 31 10 13 0 24 4 24 8 0 4 19 9 42 11 22 1 49 6
59 11 10 6 30 10 46 10 22 0 25 2 13 10 -11 8 -8 9 13 4 16 -4 38 -2 50 4 12
6 38 13 57 15 58 8 169 45 140 48 -14 1 13 6 60 10 46 5 86 13 90 18 5 8 70
28 124 38 20 4 27 2 22 -6 -4 -6 -3 -11 2 -11 17 0 22 13 10 29 -7 9 -9 13 -4
9 5 -4 24 -1 43 7 41 17 57 19 48 5 -10 -16 6 -12 96 21 46 16 108 39 138 49
52 19 73 30 56 30 -17 0 -200 -62 -209 -71 -6 -5 -19 -9 -30 -9 -33 0 40 35
146 71 98 33 121 46 112 60 -3 5 2 6 10 3 15 -6 140 55 132 64 -3 2 18 22 46
43 90 67 187 199 213 289 9 31 83 120 98 120 8 0 8 -3 2 -8 -5 -4 -16 -15 -23
-24 -15 -19 -1 -20 33 -1 11 6 37 14 58 18 20 4 40 11 43 16 3 5 9 7 14 4 5
-3 33 4 62 15 29 11 63 20 76 20 12 0 22 5 22 10 0 6 7 10 15 10 18 0 289 76
320 90 11 5 38 11 60 15 22 4 68 18 102 31 34 14 84 27 112 31 28 3 51 10 51
14 0 5 9 9 20 9 11 0 20 3 20 8 0 4 16 8 36 9 19 1 41 6 47 11 7 6 39 15 72
22 33 6 69 18 80 25 11 7 36 16 55 20 19 4 41 12 48 17 8 7 12 6 12 -3 0 -11
2 -11 8 -1 5 7 24 14 44 16 19 2 40 6 46 10 18 11 133 46 151 46 9 0 21 4 26
9 6 6 28 14 50 20 22 5 56 14 75 20 19 6 76 21 125 34 50 13 119 34 155 45 36
12 93 31 127 42 35 11 66 19 70 18 12 -3 93 24 93 31 0 3 14 7 31 8 17 1 38 8
47 15 12 10 14 10 8 1 -10 -18 9 -16 24 2 7 9 21 13 31 10 12 -4 19 -1 19 6 0
7 3 10 6 6 3 -3 30 3 60 13 30 11 54 16 54 12 0 -3 5 -1 12 6 7 7 23 12 36 12
15 0 21 4 16 12 -5 7 -2 9 8 5 14 -5 60 4 108 21 8 3 24 7 35 9 64 11 189 64
235 99 33 25 31 26 -14 8 -14 -5 -17 -4 -12 4 4 7 13 12 20 12 36 0 96 75 186
235 94 165 136 225 160 225 7 0 -2 -13 -19 -29 -30 -29 -44 -55 -17 -32 11 9
15 9 19 -1 4 -8 6 -7 6 5 1 9 5 17 10 17 5 0 16 3 24 6 9 3 17 -2 21 -13 3
-10 4 1 3 24 -1 23 1 39 5 37 5 -3 8 -17 8 -32 0 -15 4 -22 8 -17 4 6 18 12
31 12 13 1 27 6 30 10 3 4 17 14 31 21 14 7 36 22 50 33 20 17 21 19 5 14 -11
-4 -37 -14 -59 -22 -21 -7 -41 -12 -43 -9 -2 2 17 11 44 20 68 23 136 85 184
169 143 247 184 307 213 307 5 0 -8 -16 -30 -35 -40 -35 -36 -43 13 -24 23 8
30 7 40 -7 12 -16 13 -14 13 14 0 39 12 41 27 5 10 -26 11 -27 12 -5 1 13 5
20 11 17 13 -8 60 18 89 49 27 29 23 32 -17 12 -37 -18 -92 -28 -92 -16 0 6 8
10 19 10 29 0 104 36 128 62 31 33 124 191 161 274 25 55 32 83 30 125 -1 36
-3 43 -5 21 -3 -20 -8 -30 -15 -26 -6 4 -16 0 -22 -8 -6 -8 -23 -18 -38 -22
-24 -5 -28 -3 -28 16 0 21 -2 20 -15 -7 -9 -16 -48 -84 -88 -150 -62 -101 -78
-122 -108 -132 -26 -9 -486 -12 -1921 -12 -1246 -1 -1889 -4 -1893 -11 -8 -14
3784 -14 3819 0 14 5 26 6 26 1 0 -23 -92 -31 -351 -32 -151 -1 -264 -4 -251
-6 12 -2 22 -9 22 -15 0 -6 15 -7 41 -3 29 5 40 4 35 -4 -5 -8 -473 -11 -1706
-11 -1122 0 -1701 -3 -1705 -10 -4 -7 601 -10 1809 -10 1442 0 1816 3 1820 13
3 6 3 2 0 -11 -9 -38 -184 -326 -212 -349 -15 -13 -52 -30 -82 -39 -58 -18
-99 -17 -395 6 -71 5 -368 26 -660 45 -291 20 -593 40 -670 45 -431 30 -584
40 -615 39 -43 -2 168 -20 560 -49 450 -33 992 -79 998 -85 3 -3 -13 -5 -35
-5 -59 0 -103 -11 -103 -25 0 -7 -22 -14 -58 -18 -175 -19 -107 -30 423 -68
160 -12 291 -22 293 -24 5 -4 -159 -293 -173 -305 -34 -28 -124 -21 -650 50
-291 39 -613 82 -715 95 -102 13 -354 47 -560 75 -206 28 -440 59 -520 70 -80
11 -278 37 -440 59 -172 23 -299 36 -304 31 -14 -13 -6 -15 269 -50 271 -34
404 -52 1185 -160 283 -39 531 -75 550 -80 l35 -8 -30 -2 c-16 -2 -47 -2 -67
-1 -39 3 -47 -6 -26 -27 8 -8 5 -11 -13 -10 -13 1 -46 0 -74 -1 -46 -3 -48 -3
-20 -11 27 -8 632 -96 925 -135 63 -9 131 -19 150 -22 l35 -6 -35 -9 c-19 -5
-165 -48 -325 -95 l-290 -86 -145 6 c-96 4 -188 14 -270 31 -69 14 -444 91
-835 171 -390 80 -741 152 -780 160 -38 8 -146 30 -239 50 -176 36 -206 40
-206 27 0 -4 28 -14 63 -20 321 -65 1350 -282 1427 -302 71 -18 72 -19 28 -17
-27 1 -48 -1 -48 -5 0 -5 -9 -8 -20 -8 -22 0 -27 -15 -7 -23 6 -3 0 -6 -15 -6
-14 -1 -29 5 -31 12 -3 7 -6 8 -6 1 -1 -6 -13 -9 -28 -7 -21 3 -24 2 -13 -5
13 -9 346 -83 650 -146 63 -13 108 -26 100 -29 -8 -3 -80 -25 -160 -48 -80
-23 -228 -66 -329 -95 -203 -60 -267 -66 -395 -39 -38 8 -71 13 -73 11 -4 -3
91 -31 157 -46 42 -9 41 -9 -19 -4 -35 3 -134 26 -220 51 -221 65 -324 93
-328 89 -2 -2 10 -8 26 -14 17 -6 31 -16 31 -21 0 -15 -37 -14 -43 2 -2 7 -8
8 -13 3 -5 -5 -4 -11 4 -13 27 -10 10 -21 -25 -17 -30 4 -34 3 -21 -5 17 -12
342 -121 358 -121 5 0 21 -5 37 -11 31 -12 38 -10 -352 -124 -88 -25 -213 -62
-279 -82 -185 -56 -212 -50 -571 117 -121 56 -295 138 -387 181 -92 43 -170
79 -173 79 -31 0 39 -38 265 -145 438 -208 485 -232 392 -205 -27 7 -33 6 -29
-4 4 -10 -8 -13 -48 -12 -29 1 -51 -2 -49 -6 8 -12 223 -113 282 -132 28 -10
52 -19 52 -22 0 -2 -25 -55 -55 -118 -67 -141 -120 -192 -273 -267 -116 -58
-171 -65 -259 -35 -62 21 -97 44 -433 286 -353 255 -380 273 -387 266 -7 -6 3
-15 76 -66 73 -52 242 -180 237 -180 -3 0 -21 9 -41 20 -41 23 -52 25 -37 7 8
-10 6 -16 -9 -26 -17 -10 -25 -9 -45 4 -25 16 -33 10 -11 -9 36 -30 268 -201
395 -292 l143 -103 -43 -11 c-24 -6 -104 -29 -178 -49 -392 -110 -411 -114
-476 -86 -68 28 -130 84 -329 294 -109 116 -206 211 -214 211 -9 0 10 -26 44
-61 53 -54 60 -72 14 -32 -12 10 -23 11 -43 3 -21 -8 -32 -7 -49 5 -39 27 -40
16 -2 -27 132 -149 387 -414 429 -446 16 -12 27 -24 25 -25 -2 -2 -49 -15
-104 -30 -55 -15 -131 -35 -170 -46 -223 -62 -343 -94 -367 -98 -36 -7 -97 29
-140 81 -19 22 -68 97 -108 166 -40 69 -93 158 -117 198 -24 40 -43 76 -43 80
0 4 21 14 48 20 65 18 163 54 158 59 -5 5 -99 -18 -109 -27 -5 -4 -28 -6 -50
-4 -32 3 -36 2 -17 -4 24 -8 24 -9 -7 -13 -23 -4 -33 -2 -33 8 0 7 -8 13 -17
12 -11 0 -13 -3 -5 -6 6 -2 12 -8 12 -12 0 -12 -84 -4 -88 9 -3 8 -8 7 -19 -1
-12 -10 -17 -10 -25 2 -8 12 -9 11 -5 -2 5 -14 -3 -16 -48 -17 -29 0 -61 -5
-72 -10 -27 -14 -95 -23 -88 -11 4 5 12 9 18 9 26 0 177 44 177 52 0 13 -32
10 -142 -17 -120 -28 -396 -77 -411 -72 -5 1 -18 27 -28 57 -16 47 -18 50 -15
18 4 -29 1 -37 -15 -41 -14 -4 -23 1 -29 16 -7 17 -9 18 -9 5 -1 -26 -19 -22
-24 5 -2 12 -2 -1 0 -29 l4 -51 -163 -11 c-90 -7 -214 -15 -275 -18 l-113 -7
-1 99 c-1 89 -2 93 -9 46 -8 -55 -19 -80 -21 -46 0 18 -1 18 -9 -1 l-9 -20 -1
20 -1 20 -8 -20 c-7 -16 -10 -12 -19 25 -9 43 -10 42 -11 -39 l-1 -83 -112 6
c-62 4 -186 12 -276 18 l-163 11 5 51 c5 41 4 46 -4 26 -9 -20 -13 -22 -20
-10 -7 10 -10 11 -10 3 0 -7 -9 -13 -19 -13 -11 0 -22 -6 -25 -12 -4 -7 -4 3
0 22 15 92 13 99 -9 31 -13 -41 -28 -76 -34 -78 -20 -7 -287 43 -533 99 -7 2
-14 -2 -17 -8 -2 -6 44 -22 114 -40 127 -31 136 -45 13 -18 -41 9 -89 16 -107
17 -18 0 -30 4 -27 9 3 4 0 8 -5 8 -6 0 -11 -4 -11 -10 0 -5 -7 -10 -15 -10
-8 0 -15 4 -15 10 0 6 -26 8 -67 6 -73 -5 -126 2 -118 14 3 4 -5 8 -18 8 -28
0 -103 17 -141 32 -16 6 -31 9 -33 7 -5 -6 184 -75 225 -83 17 -4 32 -10 32
-14 0 -13 -220 -383 -257 -431 -40 -53 -79 -85 -115 -94 -14 -4 -58 3 -99 13
-342 92 -573 155 -579 160 -2 1 11 15 30 30 45 35 251 249 423 440 21 23 34
42 29 42 -4 0 -13 -5 -20 -12 -17 -17 -82 -18 -75 -1 3 7 10 10 16 6 6 -4 7
-1 3 6 -6 9 -13 8 -27 -5 -10 -9 -16 -21 -12 -27 3 -6 1 -7 -6 -3 -6 4 -20 2
-29 -5 -9 -7 9 14 41 48 33 33 55 63 50 66 -5 3 -101 -91 -214 -209 -112 -119
-225 -231 -250 -250 -85 -62 -149 -77 -229 -54 -19 6 -96 27 -170 46 -181 48
-372 103 -377 108 -3 2 6 10 19 17 28 15 471 336 517 375 39 32 34 44 -6 16
-20 -14 -34 -18 -44 -11 -11 7 -11 9 4 9 9 0 17 4 17 10 0 5 -8 6 -17 3 -13
-5 -15 -2 -10 12 7 16 5 16 -15 3 -13 -8 -32 -18 -43 -21 -17 -6 -18 -5 -5 5
28 24 215 163 253 188 36 24 51 47 24 37 -13 -5 -187 -128 -455 -323 -288
-208 -302 -216 -388 -239 -72 -19 -118 -9 -240 50 -138 67 -191 120 -262 265
l-58 119 45 11 c39 10 295 130 310 146 3 3 -16 3 -44 0 -27 -3 -44 -3 -37 0
10 5 9 9 -4 19 -14 10 -24 10 -52 -2 -19 -8 -36 -12 -38 -10 -5 4 133 74 331
167 55 26 150 71 210 100 61 28 120 56 133 61 18 7 32 29 18 29 -5 0 -364
-167 -569 -264 -246 -117 -329 -146 -411 -146 -23 0 -180 41 -351 91 -421 123
-462 137 -445 142 8 3 110 36 225 72 116 37 214 71 219 75 9 9 -20 6 -64 -5
-19 -5 -22 -4 -10 4 11 8 12 11 2 11 -7 0 -10 5 -7 10 9 14 -19 12 -33 -2 -8
-8 -12 -9 -12 -1 0 6 6 14 12 17 7 3 -7 3 -32 0 -36 -4 -25 2 55 30 103 35
537 173 843 267 94 29 172 56 172 61 0 4 -4 8 -9 8 -5 0 -323 -97 -707 -216
-385 -118 -728 -222 -764 -229 -36 -8 -99 -15 -140 -15 -75 0 -105 6 -335 75
-60 18 -175 52 -255 75 -174 50 -178 51 -165 56 6 2 66 14 135 28 69 14 217
46 330 72 113 25 217 48 233 51 45 9 40 21 -8 17 -42 -4 -45 -3 -45 21 0 19
-5 25 -22 25 -19 0 -20 -2 -8 -11 12 -8 10 -9 -9 -7 -62 8 -17 26 147 61 286
62 1091 229 1270 265 45 9 82 20 82 24 0 16 63 28 -860 -162 -217 -45 -570
-117 -785 -161 -214 -44 -421 -87 -460 -95 -38 -8 -137 -17 -220 -20 -162 -7
-145 -9 -380 61 -49 15 -164 49 -255 75 -185 54 -187 48 25 75 146 19 638 89
794 113 87 13 110 20 100 29 -8 6 -33 14 -56 18 -27 4 -43 12 -43 21 0 11 -12
13 -57 9 -32 -3 -53 -3 -48 -1 20 10 1299 187 1820 252 220 28 233 31 219 44
-8 7 -182 -14 -854 -105 -63 -9 -216 -29 -340 -45 -124 -17 -324 -43 -445 -60
-725 -99 -1359 -183 -1420 -187 -117 -9 -127 -1 -223 172 -45 82 -81 149 -80
151 2 2 763 61 833 65 21 1 -72 25 -140 36 -32 5 -36 8 -20 14 16 6 13 8 -15
9 -32 2 -33 3 -10 10 17 6 -1 9 -60 10 l-85 3 70 7 c39 4 106 11 150 14 44 4
91 8 105 11 14 2 75 7 135 10 61 3 155 10 210 15 55 5 150 12 210 16 61 4 103
9 94 11 -14 4 -785 -46 -1294 -84 -393 -28 -465 -24 -531 34 -26 22 -204 318
-204 338 0 3 817 4 1815 3 1207 -2 1814 0 1812 7 -3 7 -585 12 -1708 15 -937
3 -1686 7 -1664 8 33 3 36 5 20 12 -11 5 -38 10 -60 11 -137 10 390 15 1770
17 863 2 1571 5 1573 7 24 23 -105 25 -1896 26 -1435 0 -1895 3 -1921 12 -28
10 -46 33 -113 142 -89 145 -86 141 -94 133 -3 -4 0 -17 6 -30 11 -22 11 -22
-9 2 -12 16 -16 27 -9 31 6 4 7 12 3 19 -6 9 -9 9 -16 -1 -6 -10 -9 -11 -9 -1
0 19 -20 14 -20 -5 -1 -11 -6 -7 -14 12 -10 23 -14 26 -21 15 -8 -12 -11 -8
-16 15 -5 24 -7 18 -8 -24z m16908 -85 c-7 -14 -16 -26 -20 -26 -5 0 0 13 9
29 20 36 27 34 11 -3z m-16764 -16 c3 -5 1 -10 -4 -10 -6 0 -11 5 -11 10 0 6
2 10 4 10 3 0 8 -4 11 -10z m16530 -380 c-3 -5 -12 -7 -20 -3 -21 7 -19 13 6
13 11 0 18 -4 14 -10z m-16260 -10 c3 -5 2 -10 -4 -10 -5 0 -13 5 -16 10 -3 6
-2 10 4 10 5 0 13 -4 16 -10z m14772 -376 c-3 -3 -12 -4 -19 -1 -8 3 -5 6 6 6
11 1 17 -2 13 -5z m-14412 -84 c3 -5 1 -10 -4 -10 -6 0 -11 5 -11 10 0 6 2 10
4 10 3 0 8 -4 11 -10z m35 -20 c0 -5 -2 -10 -4 -10 -3 0 -8 5 -11 10 -3 6 -1
10 4 10 6 0 11 -4 11 -10z m13030 -514 c0 -2 -11 -6 -25 -8 -13 -3 -22 -1 -19
3 5 9 44 13 44 5z m1850 -6 c0 -5 -8 -10 -17 -10 -15 0 -16 2 -3 10 19 12 20
12 20 0z m-14273 -16 c-3 -3 -12 -4 -19 -1 -8 3 -5 6 6 6 11 1 17 -2 13 -5z
m14188 -4 c-3 -5 -12 -10 -18 -10 -7 0 -6 4 3 10 19 12 23 12 15 0z m-14089
-26 c31 -9 54 -18 51 -20 -5 -6 -137 35 -137 42 0 4 7 3 15 0 9 -3 41 -13 71
-22z m214 -59 c68 -19 125 -37 128 -40 8 -8 -9 -5 -73 11 -33 9 -72 18 -88 21
-15 3 -30 9 -33 14 -3 5 -18 9 -34 9 -16 0 -32 5 -35 10 -9 15 0 13 135 -25z
m13667 19 c-3 -3 -12 -4 -19 -1 -8 3 -5 6 6 6 11 1 17 -2 13 -5z m-13372 -105
c136 -39 150 -44 134 -47 -9 -2 -75 15 -145 38 -129 41 -121 48 11 9z m13020
1 c-11 -5 -27 -9 -35 -9 -9 0 -8 4 5 9 11 5 27 9 35 9 9 0 8 -4 -5 -9z
m-12803 -64 c68 -21 119 -36 566 -167 233 -68 419 -125 414 -127 -6 -2 -37 4
-69 13 -84 24 -176 51 -193 57 -8 3 -46 15 -85 26 -38 11 -119 34 -180 52 -60
17 -121 35 -135 40 -14 4 -43 13 -65 19 -108 29 -292 85 -305 92 -23 13 4 11
52 -5z m12598 4 c0 -5 -5 -10 -11 -10 -5 0 -7 5 -4 10 3 6 8 10 11 10 2 0 4
-4 4 -10z m-153 -46 c-3 -3 -12 -4 -19 -1 -8 3 -5 6 6 6 11 1 17 -2 13 -5z
m-352 -103 c-6 -5 -28 -11 -50 -14 l-40 -6 40 14 c49 16 62 18 50 6z m-10979
-182 c38 -12 89 -27 114 -34 25 -7 108 -32 185 -55 199 -59 208 -62 432 -126
112 -33 203 -62 203 -66 0 -4 -15 -2 -32 3 -18 6 -71 21 -118 34 -47 13 -146
41 -220 63 -74 22 -191 57 -260 77 -266 78 -395 117 -399 121 -10 10 32 2 95
-17z m10301 -15 c-3 -3 -12 -4 -19 -1 -8 3 -5 6 6 6 11 1 17 -2 13 -5z m-340
-100 c-3 -3 -12 -4 -19 -1 -8 3 -5 6 6 6 11 1 17 -2 13 -5z m-270 -80 c-3 -3
-12 -4 -19 -1 -8 3 -5 6 6 6 11 1 17 -2 13 -5z m-52 -13 c-12 -12 -65 -26 -65
-17 0 3 15 10 33 15 43 12 42 12 32 2z m-228 -67 c-3 -3 -12 -4 -19 -1 -8 3
-5 6 6 6 11 1 17 -2 13 -5z m-8426 -21 c40 -24 36 -34 -6 -15 -19 9 -35 20
-35 24 0 12 9 10 41 -9z m6289 -203 c0 -5 -2 -10 -4 -10 -3 0 -8 5 -11 10 -3
6 -1 10 4 10 6 0 11 -4 11 -10z m-3445 -110 c-3 -5 -11 -10 -16 -10 -6 0 -7 5
-4 10 3 6 11 10 16 10 6 0 7 -4 4 -10z m115 -10 c0 -5 -4 -10 -9 -10 -6 0 -13
5 -16 10 -3 6 1 10 9 10 9 0 16 -4 16 -10z m28 -75 c128 -31 225 -51 351 -70
51 -7 95 -15 96 -17 3 -3 -57 -224 -105 -388 -27 -93 -71 -157 -123 -180 -55
-26 -91 -25 -195 4 -48 14 -136 38 -197 54 -60 17 -154 43 -207 58 l-98 27 33
37 c31 33 159 242 267 433 28 50 49 76 57 72 8 -2 62 -16 121 -30z m2551 -39
c81 -149 232 -397 261 -430 32 -36 37 -53 18 -53 -7 0 -141 -35 -296 -78 -313
-85 -343 -88 -404 -41 -52 39 -82 104 -132 286 -25 91 -52 187 -60 215 -9 27
-14 50 -13 52 2 1 48 9 102 18 103 16 332 65 420 89 28 8 53 15 57 15 3 1 24
-32 47 -73z m-1838 -76 c57 -5 140 -12 184 -16 l80 -6 -86 -82 c-351 -334
-426 -404 -465 -429 -48 -30 -51 -29 -30 11 20 38 57 158 106 342 22 85 43
163 46 173 6 20 20 21 165 7z m1134 -87 c15 -54 45 -163 66 -242 22 -79 49
-161 61 -182 12 -21 19 -41 17 -43 -15 -16 -169 121 -503 445 l-90 87 75 6
c41 4 115 10 164 15 50 4 111 9 136 10 l46 1 28 -97z m-650 17 c-3 -5 -10 -10
-16 -10 -5 0 -9 5 -9 10 0 6 7 10 16 10 8 0 12 -4 9 -10z m-2808 -226 c-3 -3
-12 -4 -19 -1 -8 3 -5 6 6 6 11 1 17 -2 13 -5z m599 -132 c-10 -2 -22 0 -28 6
-6 6 0 7 19 4 21 -5 23 -7 9 -10z m347 -84 c43 -11 76 -22 74 -24 -5 -5 -200
46 -207 53 -6 7 26 0 133 -29z m3787 12 c-8 -5 -24 -9 -35 -9 -16 1 -16 2 5 9
35 11 48 11 30 0z m-90 -25 c-19 -7 -44 -13 -55 -13 -11 0 -2 5 20 13 53 17
80 17 35 0z m-3583 -21 c-3 -3 -12 -4 -19 -1 -8 3 -5 6 6 6 11 1 17 -2 13 -5z
m178 -44 c25 -11 -1 -11 -35 0 -20 6 -21 8 -5 8 11 0 29 -3 40 -8z m3160 0
c-11 -5 -29 -8 -40 -8 -16 0 -15 2 5 8 34 11 60 11 35 0z m-3060 -30 c33 -11
47 -17 30 -14 -49 9 -105 24 -105 29 0 8 13 6 75 -15z m2995 16 c0 -6 -104
-36 -122 -35 -7 0 12 8 42 19 57 18 80 23 80 16z m-2880 -46 c11 -8 7 -9 -15
-4 -37 8 -45 14 -19 14 10 0 26 -5 34 -10z m2725 0 c-11 -5 -27 -9 -35 -9 -9
0 -8 4 5 9 11 5 27 9 35 9 9 0 8 -4 -5 -9z m-2678 -16 c-3 -3 -12 -4 -19 -1
-8 3 -5 6 6 6 11 1 17 -2 13 -5z m2603 -4 c-34 -11 -60 -11 -35 0 11 5 29 8
40 8 16 0 15 -2 -5 -8z m-2563 -6 c-3 -3 -12 -4 -19 -1 -8 3 -5 6 6 6 11 1 17
-2 13 -5z m152 -40 c62 -15 109 -30 103 -32 -14 -4 -211 46 -232 59 -13 9 -13
10 0 6 8 -2 66 -17 129 -33z m2349 30 c-10 -9 -211 -64 -216 -59 -8 8 -4 9
103 37 108 28 121 31 113 22z m-1983 -24 c-3 -5 -11 -10 -16 -10 -6 0 -7 5 -4
10 3 6 11 10 16 10 6 0 7 -4 4 -10z"/>
<path d="M5331 6913 l11 -33 1695 0 c1351 0 1694 3 1691 13 -4 9 -353 13
-1693 15 -1593 2 -1689 3 -1701 20 -12 15 -12 12 -3 -15z"/>
<path d="M13850 6925 c-11 -13 -215 -15 -1698 -17 -1338 -2 -1686 -6 -1690
-15 -3 -10 340 -13 1691 -13 l1695 0 11 30 c11 34 9 37 -9 15z"/>
<path d="M5415 6820 c-4 -7 105 -10 329 -10 l336 0 0 -64 0 -65 -52 -5 c-29
-3 -136 -10 -238 -16 -101 -6 -186 -13 -188 -15 -4 -3 375 4 448 9 l35 2 0 84
0 85 -332 3 c-216 1 -334 -1 -338 -8z"/>
<path d="M13102 6743 l3 -87 35 -2 c69 -5 452 -13 448 -9 -1 2 -86 8 -188 15
-102 6 -209 13 -238 16 l-53 6 3 61 3 62 333 3 c216 1 331 6 327 12 -4 6 -132
10 -341 10 l-335 0 3 -87z"/>
<path d="M6180 6308 l0 -478 3415 0 3415 0 0 478 0 477 -3415 0 -3415 0 0
-477z m490 242 c179 -415 240 -559 240 -564 0 -3 -24 -6 -54 -6 -42 0 -55 4
-61 18 -3 9 -22 60 -42 112 -19 52 -40 101 -45 108 -7 8 -44 12 -118 12 l-108
0 -41 -110 c-22 -61 -41 -117 -41 -125 0 -11 -12 -15 -45 -15 -25 0 -45 1 -45
3 0 3 100 227 149 332 15 33 54 120 86 193 42 94 63 132 74 130 8 -2 31 -41
51 -88z m602 64 c38 -20 42 -32 23 -77 -17 -41 -30 -47 -40 -17 -16 51 -97 75
-155 45 -36 -19 -50 -43 -50 -87 0 -53 25 -76 134 -127 141 -66 173 -114 147
-217 -16 -64 -57 -113 -116 -140 -78 -37 -195 -30 -253 15 -20 15 -20 20 -10
61 6 25 13 47 14 49 2 2 23 -16 46 -42 75 -80 171 -74 216 13 41 81 14 127
-106 182 -128 59 -162 97 -162 184 0 115 101 192 234 178 27 -3 62 -12 78 -20z
m1067 -6 c115 -43 191 -148 199 -274 9 -148 -67 -279 -197 -337 -70 -32 -228
-36 -302 -8 -173 65 -249 251 -183 444 31 91 135 173 247 197 60 13 171 2 236
-22z m2358 -78 c25 -58 55 -130 68 -160 13 -30 53 -125 90 -210 37 -85 67
-160 68 -167 2 -13 4 -13 -61 -13 l-47 0 -24 68 c-14 37 -35 91 -48 120 l-23
52 -113 0 -113 0 -41 -117 -40 -118 -47 -3 -46 -3 36 78 c19 43 78 175 131
293 123 277 131 292 149 288 9 -2 35 -48 61 -108z m-2837 55 l0 -33 -95 5 -95
6 -2 -294 -3 -294 -45 0 -45 1 -3 293 -2 293 -101 -3 -101 -4 -3 32 -3 33 242
2 c132 2 244 2 249 0 4 -2 7 -18 7 -37z m854 2 c23 -23 86 -92 141 -152 55
-60 132 -142 170 -183 39 -41 72 -78 73 -83 13 -34 17 20 17 223 l0 233 33 2
c17 1 32 -2 32 -5 6 -314 3 -643 -5 -645 -21 -8 -42 7 -93 66 -29 34 -77 89
-107 122 -30 33 -101 113 -158 177 -56 64 -105 117 -109 117 -4 1 -9 -108 -10
-241 l-3 -242 -30 -1 -30 0 -3 315 c-1 173 0 320 3 327 9 24 38 13 79 -30z
m1017 -79 c59 -117 128 -244 171 -316 26 -42 5 -73 214 311 90 164 97 165 114
7 6 -58 22 -197 36 -309 14 -112 23 -209 21 -215 -3 -7 -22 -10 -51 -8 -55 5
-49 -17 -72 245 -9 108 -20 197 -23 197 -4 0 -58 -99 -120 -220 -62 -121 -117
-218 -122 -215 -5 4 -47 81 -93 173 -119 237 -135 266 -140 251 -6 -23 -36
-341 -36 -386 0 -27 -5 -43 -12 -44 -74 -6 -73 -6 -70 31 2 19 14 109 27 200
13 91 32 219 41 285 9 66 18 123 21 128 14 24 38 -6 94 -115z m1566 101 c73
-23 112 -88 97 -164 -9 -49 -65 -110 -122 -131 -26 -10 -49 -19 -51 -21 -2 -1
51 -70 118 -153 67 -83 119 -154 117 -158 -2 -4 -30 -5 -63 -3 l-58 4 -70 94
c-82 111 -162 207 -175 211 -6 2 -10 -56 -10 -152 l0 -156 -50 0 -50 0 0 318
c0 175 2 321 4 323 8 8 282 -2 313 -12z m639 -21 l-2 -33 -97 4 -97 3 -2 -293
-3 -294 -45 1 -45 1 0 293 0 293 -102 -6 -103 -5 0 34 0 34 243 2 c133 2 245
2 248 1 4 -2 6 -17 5 -35z m164 -288 l0 -320 -47 0 -48 0 0 320 0 320 48 0 47
0 0 -320z m392 88 l213 -231 3 231 2 232 35 0 35 0 0 -320 0 -320 -25 0 c-13
0 -28 6 -32 14 -9 16 -17 24 -213 241 -75 83 -151 167 -170 188 -18 20 -36 37
-39 37 -3 0 -5 -108 -3 -240 l3 -240 -36 0 -35 0 0 320 0 320 25 0 c19 0 70
-50 237 -232z"/>
<path d="M6581 6457 c-6 -15 -24 -58 -41 -98 -16 -39 -30 -73 -30 -75 0 -2 39
-4 86 -4 70 0 85 3 81 14 -28 71 -71 173 -78 180 -5 5 -13 -2 -18 -17z"/>
<path d="M8109 6576 c-82 -29 -130 -84 -155 -179 -48 -182 27 -347 172 -375
94 -19 162 1 220 64 106 114 112 321 13 429 -63 68 -163 92 -250 61z"/>
<path d="M10573 6397 c-18 -45 -35 -90 -39 -99 -5 -16 2 -18 75 -18 47 0 81 4
81 10 0 14 -74 190 -80 190 -3 0 -19 -37 -37 -83z"/>
<path d="M11080 6455 c0 -90 3 -117 14 -121 24 -9 126 14 156 36 38 27 54 77
41 127 -15 54 -51 73 -140 73 l-71 0 0 -115z"/>
<path d="M1535 6670 c3 -5 8 -10 11 -10 2 0 4 5 4 10 0 6 -5 10 -11 10 -5 0
-7 -4 -4 -10z"/>
<path d="M14658 6573 c12 -2 32 -2 45 0 12 2 2 4 -23 4 -25 0 -35 -2 -22 -4z"/>
<path d="M14758 6563 c17 -2 47 -2 65 0 17 2 3 4 -33 4 -36 0 -50 -2 -32 -4z"/>
<path d="M4233 6553 c9 -2 23 -2 30 0 6 3 -1 5 -18 5 -16 0 -22 -2 -12 -5z"/>
<path d="M4063 6543 c15 -2 37 -2 50 0 12 2 0 4 -28 4 -27 0 -38 -2 -22 -4z"/>
<path d="M3908 6533 c12 -2 30 -2 40 0 9 3 -1 5 -23 4 -22 0 -30 -2 -17 -4z"/>
<path d="M3978 6533 c7 -3 16 -2 19 1 4 3 -2 6 -13 5 -11 0 -14 -3 -6 -6z"/>
<path d="M6080 6490 l-5 -55 -185 -24 -185 -23 -25 33 c-47 62 -62 74 -28 24
45 -67 53 -75 79 -75 42 0 344 43 352 50 4 4 7 34 5 66 l-4 59 -4 -55z"/>
<path d="M13102 6482 c-1 -42 2 -64 11 -67 18 -6 321 -45 348 -44 18 0 39 19
77 70 29 38 49 69 45 69 -4 0 -28 -27 -52 -60 -30 -42 -50 -60 -65 -60 -11 1
-95 11 -186 23 l-165 23 -6 54 -6 55 -1 -63z"/>
<path d="M3758 6523 c18 -2 45 -2 60 0 15 2 0 4 -33 4 -33 0 -45 -2 -27 -4z"/>
<path d="M16288 6403 c7 -3 16 -2 19 1 4 3 -2 6 -13 5 -11 0 -14 -3 -6 -6z"/>
<path d="M2968 6383 c7 -3 16 -2 19 1 4 3 -2 6 -13 5 -11 0 -14 -3 -6 -6z"/>
<path d="M13100 6233 l0 -80 88 -17 87 -16 62 67 c34 38 62 73 63 78 0 6 -28
-20 -63 -57 l-62 -67 -80 18 -80 18 -1 62 c-2 92 -14 87 -14 -6z"/>
<path d="M6080 6241 l-5 -64 -83 -17 -83 -17 -59 66 c-33 36 -60 63 -60 59 0
-4 6 -13 13 -20 11 -12 98 -118 103 -126 5 -9 176 33 180 43 3 7 4 41 2 76
l-4 64 -4 -64z"/>
<path d="M6079 6043 c-1 -5 -1 -25 -1 -47 l0 -38 -40 38 c-22 22 -36 30 -30
19 6 -11 26 -36 46 -54 l36 -35 0 62 c0 34 -2 62 -5 62 -3 0 -5 -3 -6 -7z"/>
<path d="M13102 5991 l-2 -65 36 35 c20 18 40 43 46 54 6 11 -8 2 -30 -19
l-41 -39 -4 49 c-3 45 -4 43 -5 -15z"/>
<path d="M3768 6013 c7 -3 16 -2 19 1 4 3 -2 6 -13 5 -11 0 -14 -3 -6 -6z"/>
<path d="M4330 5750 c0 -5 10 -10 23 -10 18 0 19 2 7 10 -19 13 -30 13 -30 0z"/>
<path d="M6334 5688 c22 -18 83 -72 135 -120 53 -48 101 -88 107 -88 6 0 107
45 225 101 118 56 230 108 249 117 25 11 30 17 18 19 -10 3 -64 -18 -120 -45
-57 -26 -164 -77 -240 -111 l-136 -63 -127 108 c-69 60 -132 110 -138 112 -7
2 6 -12 27 -30z"/>
<path d="M7883 5693 c-22 -16 -203 -145 -402 -288 -199 -143 -367 -264 -374
-269 -14 -9 -176 92 -337 210 -50 36 -94 64 -97 60 -8 -7 0 -14 127 -105 101
-73 263 -179 286 -188 8 -3 29 6 47 19 17 14 70 52 117 85 47 33 215 153 375
267 159 115 295 211 302 213 14 6 18 23 5 23 -5 0 -27 -12 -49 -27z"/>
<path d="M8370 5653 c-60 -64 -352 -370 -615 -643 -66 -68 -126 -131 -133
-139 -12 -12 -42 0 -210 85 -232 117 -212 108 -212 96 0 -11 230 -136 339
-183 l73 -33 72 75 c39 41 215 225 391 409 176 184 332 347 348 362 15 15 27
30 27 33 0 16 -24 -2 -80 -62z"/>
<path d="M8800 5612 c-35 -59 -78 -132 -96 -162 -17 -30 -65 -111 -106 -180
-41 -69 -141 -239 -222 -378 l-149 -253 -31 7 c-46 10 -278 88 -380 128 -84
33 -112 38 -90 16 16 -16 469 -180 498 -180 4 0 33 49 161 270 43 74 91 155
106 180 35 59 325 552 357 608 13 24 22 45 20 47 -3 3 -33 -43 -68 -103z"/>
<path d="M10320 5712 c0 -7 17 -41 38 -75 21 -34 58 -96 82 -137 24 -41 53
-91 65 -110 13 -19 62 -102 110 -185 48 -82 118 -202 155 -265 36 -63 93 -160
124 -215 32 -55 61 -103 65 -107 12 -13 478 146 505 173 23 22 -7 16 -100 -20
-167 -65 -394 -135 -403 -125 -8 8 -64 103 -231 389 -138 236 -385 653 -396
670 -8 11 -14 14 -14 7z"/>
<path d="M10785 5670 c27 -27 54 -50 59 -50 6 0 -12 23 -39 50 -27 28 -54 50
-59 50 -6 0 12 -22 39 -50z"/>
<path d="M11250 5713 c1 -5 87 -69 192 -143 105 -74 290 -206 412 -294 121
-87 226 -161 233 -163 15 -6 134 68 288 179 148 106 149 107 142 114 -3 4 -46
-22 -94 -57 -48 -36 -108 -78 -133 -94 -25 -17 -49 -34 -55 -38 -19 -15 -134
-87 -139 -87 -5 0 -644 456 -770 549 -53 39 -77 50 -76 34z"/>
<path d="M12124 5711 c4 -6 11 -11 17 -11 5 0 112 -49 238 -110 126 -60 233
-110 238 -110 5 0 52 41 104 91 l94 91 -98 -82 -99 -82 -86 40 c-48 22 -149
70 -224 106 -143 68 -196 88 -184 67z"/>
<path d="M12849 5693 l-24 -27 33 23 c32 23 39 31 24 31 -5 0 -19 -12 -33 -27z"/>
<path d="M10860 5606 c0 -2 8 -10 18 -17 15 -13 16 -12 3 4 -13 16 -21 21 -21
13z"/>
<path d="M11005 5450 c10 -11 20 -20 23 -20 3 0 -3 9 -13 20 -10 11 -20 20
-23 20 -3 0 3 -9 13 -20z"/>
<path d="M11128 5318 c27 -29 138 -149 247 -265 109 -117 203 -213 208 -213
14 0 365 176 391 195 53 40 -9 15 -191 -77 -173 -87 -203 -99 -215 -87 -19 20
-201 211 -350 367 -70 72 -130 132 -133 132 -4 0 15 -24 43 -52z"/>
<path d="M12400 4820 c0 -5 5 -10 11 -10 5 0 7 5 4 10 -3 6 -8 10 -11 10 -2 0
-4 -4 -4 -10z"/>
<path d="M10241 4674 c0 -11 3 -14 6 -6 3 7 2 16 -1 19 -3 4 -6 -2 -5 -13z"/>
<path d="M11350 4650 c-9 -6 -10 -10 -3 -10 6 0 15 5 18 10 8 12 4 12 -15 0z"/>
<path d="M10251 4634 c0 -11 3 -14 6 -6 3 7 2 16 -1 19 -3 4 -6 -2 -5 -13z"/>
<path d="M8145 4580 c11 -5 27 -9 35 -9 9 0 8 4 -5 9 -11 5 -27 9 -35 9 -9 0
-8 -4 5 -9z"/>
<path d="M8935 4560 c-3 -5 1 -10 10 -10 9 0 13 5 10 10 -3 6 -8 10 -10 10 -2
0 -7 -4 -10 -10z"/>
<path d="M10235 4560 c-3 -5 1 -10 10 -10 9 0 13 5 10 10 -3 6 -8 10 -10 10
-2 0 -7 -4 -10 -10z"/>
<path d="M13486 4445 c-11 -8 -16 -15 -10 -15 5 0 18 7 28 15 11 8 16 15 10
15 -5 0 -18 -7 -28 -15z"/>
<path d="M5697 4439 c7 -7 15 -10 18 -7 3 3 -2 9 -12 12 -14 6 -15 5 -6 -5z"/>
<path d="M13355 4350 c-3 -5 1 -10 9 -10 8 0 18 5 21 10 3 6 -1 10 -9 10 -8 0
-18 -4 -21 -10z"/>
<path d="M5840 4335 c0 -7 83 -45 88 -41 2 3 -5 9 -16 15 -30 16 -72 31 -72
26z"/>
<path d="M5946 4281 c5 -5 29 -16 54 -24 25 -9 62 -23 82 -31 43 -18 62 -20
53 -6 -3 6 -17 10 -31 10 -13 0 -24 4 -24 9 0 4 -21 14 -47 21 -27 7 -52 17
-57 21 -14 12 -43 12 -30 0z"/>
<path d="M12778 4123 c7 -3 16 -2 19 1 4 3 -2 6 -13 5 -11 0 -14 -3 -6 -6z"/>
<path d="M9815 4080 c3 -5 11 -10 16 -10 6 0 7 5 4 10 -3 6 -11 10 -16 10 -6
0 -7 -4 -4 -10z"/>
<path d="M12008 3943 c7 -3 16 -2 19 1 4 3 -2 6 -13 5 -11 0 -14 -3 -6 -6z"/>
<path d="M9185 3920 c-3 -5 -2 -10 4 -10 5 0 13 5 16 10 3 6 2 10 -4 10 -5 0
-13 -4 -16 -10z"/>
<path d="M11418 3763 c7 -3 16 -2 19 1 4 3 -2 6 -13 5 -11 0 -14 -3 -6 -6z"/>
<path d="M11112 3688 c-24 -5 -42 -12 -39 -14 5 -5 107 16 107 22 0 6 -17 4
-68 -8z"/>
<path d="M8098 3673 c6 -2 18 -2 25 0 6 3 1 5 -13 5 -14 0 -19 -2 -12 -5z"/>
<path d="M8150 3660 c8 -5 22 -9 30 -9 10 0 8 3 -5 9 -27 12 -43 12 -25 0z"/>
<path d="M11025 3660 c-16 -7 -17 -9 -3 -9 9 -1 20 4 23 9 7 11 7 11 -20 0z"/>
<path d="M8201 3646 c2 -2 18 -6 34 -10 22 -5 26 -4 15 4 -14 9 -59 15 -49 6z"/>
<path d="M10950 3640 c-11 -8 -7 -9 15 -4 37 8 45 14 19 14 -10 0 -26 -5 -34
-10z"/>
<path d="M8278 3623 c7 -3 16 -2 19 1 4 3 -2 6 -13 5 -11 0 -14 -3 -6 -6z"/>
<path d="M10870 3620 c-11 -8 -7 -9 15 -4 37 8 45 14 19 14 -10 0 -26 -5 -34
-10z"/>
<path d="M8410 3584 c41 -13 80 -23 85 -23 6 1 -24 12 -65 25 -41 13 -79 23
-85 23 -5 -1 24 -12 65 -25z"/>
<path d="M10775 3592 c-27 -8 -45 -17 -40 -19 6 -2 35 5 65 16 65 23 47 26
-25 3z"/>
<path d="M8671 3584 c0 -11 3 -14 6 -6 3 7 2 16 -1 19 -3 4 -6 -2 -5 -13z"/>
<path d="M10691 3569 c-13 -5 -22 -11 -20 -14 8 -7 49 7 49 16 0 5 -1 9 -2 8
-2 0 -14 -5 -27 -10z"/>
</g>
</svg>
