<?xml version="1.0" standalone="no"?>
<!DOCTYPE svg PUBLIC "-//W3C//DTD SVG 20010904//EN"
 "http://www.w3.org/TR/2001/REC-SVG-20010904/DTD/svg10.dtd">
<svg version="1.0" xmlns="http://www.w3.org/2000/svg"
 width="400.000000pt" height="400.000000pt" viewBox="0 0 400.000000 400.000000"
 preserveAspectRatio="xMidYMid meet">

<g transform="translate(0.000000,400.000000) scale(0.100000,-0.100000)"
fill="#000000" stroke="none">
<path d="M1890 3604 c-208 -18 -378 -63 -560 -147 -97 -46 -260 -145 -260
-159 0 -4 80 -101 178 -215 97 -115 220 -260 272 -323 287 -350 496 -574 580
-622 155 -89 235 -12 265 255 29 257 16 355 -52 415 l-38 33 42 38 c56 51 117
68 166 48 65 -28 64 -19 36 -369 -9 -119 -9 -181 -1 -254 26 -227 108 -259
276 -105 213 195 606 589 606 607 0 7 -26 52 -59 100 -230 347 -628 606 -1042
678 -88 15 -328 27 -409 20z"/>
<path d="M744 2986 c-184 -244 -285 -488 -324 -783 -18 -130 -8 -399 20 -528
72 -341 246 -643 500 -870 87 -78 96 -85 166 -132 203 -136 418 -222 664 -264
79 -13 406 -18 451 -6 17 4 33 20 45 45 65 132 168 302 177 293 5 -5 36 -61
68 -123 32 -64 64 -114 73 -116 9 -2 72 24 140 57 431 213 727 581 852 1060
13 52 22 96 20 99 -3 2 -26 -14 -53 -36 -71 -59 -127 -87 -228 -112 -129 -33
-318 -31 -465 3 -58 14 -108 22 -112 19 -4 -4 -23 -47 -43 -97 -20 -49 -43
-103 -50 -120 -8 -16 -26 -59 -40 -95 -15 -36 -33 -78 -40 -95 -30 -68 -58
-134 -82 -195 -29 -73 -43 -95 -53 -83 -4 4 -35 69 -68 143 -33 74 -78 175
-101 223 -23 49 -41 90 -41 92 0 2 -25 56 -55 120 -59 125 -54 121 -125 99
-56 -19 -182 -34 -275 -35 -157 0 -262 27 -384 101 -78 46 -185 154 -245 243
-39 60 -136 257 -136 278 0 6 -6 25 -14 42 -52 115 -143 549 -161 765 -4 45
-10 84 -14 86 -3 2 -34 -33 -67 -78z"/>
</g>
</svg>
